<?xml version="1.0"?>
<svg xmlns="http://www.w3.org/2000/svg" id="Capa_1" enable-background="new 0 0 512 512" height="512px" viewBox="0 0 512 512" width="512px"><g><g><path d="m425.574 365.672 46.601-46.601-21.213-21.214-35.219 35.22-11.456-37.978 44.923-44.922-21.213-21.213-33.541 33.541-9.382-31.104-100.756 96.66 115.163 183.939 53.955-53.955z" data-original="#000000" class="active-path" data-old_color="#000000" fill="#960606"/><path d="m280.599 126.926-31.104-9.382 33.541-33.541-21.213-21.213-44.923 44.923-37.977-11.455 35.22-35.22-21.213-21.213-46.602 46.601-92.372-27.862-53.956 53.955 183.94 115.163z" data-original="#000000" class="active-path" data-old_color="#000000" fill="#960606"/><path d="m497.318 82.147c19.296-18.512 19.615-49.264.707-68.172-18.908-18.908-49.66-18.589-68.172.707l-291.627 303.986-91.744-20.015-45.93 45.929 106.398 60.468 60.469 106.398 45.929-45.929-20.015-91.744z" data-original="#000000" class="active-path" data-old_color="#000000" fill="#960606"/></g></g> </svg>
